<?xml version="1.0" encoding="UTF-8"?>
<svg width="700" height="700" version="1.1" viewBox="0 0 700 700" xmlns="http://www.w3.org/2000/svg">
 <path d="m428.96 247.52v82.32c-0.003907 5.793-1.8125 11.441-5.1758 16.156-3.3633 4.7188-8.1094 8.2695-13.586 10.164l-13.719 101.92c-1.043 6.9258-6.9961 12.047-14 12.043h-64.961c-7.0039 0.003906-12.957-5.1172-14-12.043l-13.719-101.92c-5.4766-1.8945-10.223-5.4453-13.586-10.164-3.3633-4.7148-5.1719-10.363-5.1758-16.156v-82.32c-0.015624-11.145 4.4062-21.836 12.285-29.715 7.8789-7.8789 18.57-12.301 29.715-12.285h73.922c11.145-0.015625 21.836 4.4062 29.715 12.285 7.8789 7.8789 12.301 18.57 12.285 29.715zm-78.961-48.719c13.355-0.039062 26.152-5.3633 35.594-14.805 9.4453-9.4453 14.766-22.242 14.805-35.598v-8.1172c0-18.008-9.6055-34.645-25.199-43.648-15.594-9.0039-34.805-9.0039-50.398 0-15.594 9.0039-25.199 25.641-25.199 43.648v8.1172c0.039063 13.355 5.3594 26.152 14.805 35.598 9.4414 9.4414 22.238 14.766 35.594 14.805z"/>
</svg>
